<?xml version="1.0" encoding="UTF-8" standalone="no"?>
<!-- Created with Inkscape (http://www.inkscape.org/) -->

<svg
   xmlns:dc="http://purl.org/dc/elements/1.1/"
   xmlns:cc="http://creativecommons.org/ns#"
   xmlns:rdf="http://www.w3.org/1999/02/22-rdf-syntax-ns#"
   xmlns:svg="http://www.w3.org/2000/svg"
   xmlns="http://www.w3.org/2000/svg"
   xmlns:xlink="http://www.w3.org/1999/xlink"
   xmlns:sodipodi="http://sodipodi.sourceforge.net/DTD/sodipodi-0.dtd"
   xmlns:inkscape="http://www.inkscape.org/namespaces/inkscape"
   width="108"
   height="108"
   viewBox="0 0 108 108"
   version="1.1"
   id="svg8"
   inkscape:version="0.92.4 (5da689c313, 2019-01-14)"
   sodipodi:docname="icon-background.svg">
  <defs
     id="defs2">
    <linearGradient
       inkscape:collect="always"
       id="linearGradient5692">
      <stop
         style="stop-color:#000000;stop-opacity:0.2"
         offset="0"
         id="stop5688" />
      <stop
         style="stop-color:#000000;stop-opacity:0;"
         offset="1"
         id="stop5690" />
    </linearGradient>
    <clipPath
       clipPathUnits="userSpaceOnUse"
       id="clipPath2607">
      <rect
         style="fill:#607d8b;fill-opacity:0.08235294;stroke:none"
         id="rect2609"
         width="108"
         height="108"
         x="0"
         y="0" />
    </clipPath>
    <clipPath
       clipPathUnits="userSpaceOnUse"
       id="clipPath5092">
      <rect
         style="fill:#000000;fill-opacity:0.07843137;stroke:none"
         id="rect5094"
         width="108"
         height="108"
         x="0"
         y="7.792969e-06" />
    </clipPath>
    <linearGradient
       inkscape:collect="always"
       xlink:href="#linearGradient5692"
       id="linearGradient5694"
       x1="-22.412109"
       y1="19.043449"
       x2="108"
       y2="108.00001"
       gradientUnits="userSpaceOnUse" />
  </defs>
  <sodipodi:namedview
     id="base"
     pagecolor="#ffffff"
     bordercolor="#666666"
     borderopacity="1.0"
     inkscape:pageopacity="0.0"
     inkscape:pageshadow="2"
     inkscape:zoom="8"
     inkscape:cx="60.646873"
     inkscape:cy="63.828624"
     inkscape:document-units="px"
     inkscape:current-layer="layer1"
     showgrid="false"
     units="px"
     inkscape:pagecheckerboard="true"
     inkscape:showpageshadow="false"
     showguides="false"
     inkscape:guide-bbox="true"
     inkscape:window-width="2560"
     inkscape:window-height="1377"
     inkscape:window-x="-8"
     inkscape:window-y="-8"
     inkscape:window-maximized="1">
    <sodipodi:guide
       position="54,54"
       orientation="1,0"
       id="guide4522"
       inkscape:locked="false"
       inkscape:label=""
       inkscape:color="rgb(0,0,255)" />
    <sodipodi:guide
       position="54,54"
       orientation="0,1"
       id="guide4524"
       inkscape:locked="false" />
  </sodipodi:namedview>
  <metadata
     id="metadata5">
    <rdf:RDF>
      <cc:Work
         rdf:about="">
        <dc:format>image/svg+xml</dc:format>
        <dc:type
           rdf:resource="http://purl.org/dc/dcmitype/StillImage" />
        <dc:title></dc:title>
      </cc:Work>
    </rdf:RDF>
  </metadata>
  <g
     inkscape:label="Background"
     inkscape:groupmode="layer"
     id="layer1"
     transform="translate(0,-268.42498)"
     style="display:inline">
    <rect
       style="fill:#1d2951;fill-opacity:1;stroke:none"
       id="rect4518"
       width="108"
       height="108"
       x="0"
       y="268.42499"
       inkscape:label="background" />
    <path
       style="fill:url(#linearGradient5694);fill-opacity:1;stroke:none;stroke-width:1.61414623"
       d="m 54.144531,38.349609 c -9.327433,-0.38017 -18.87272,7.813593 -18.226562,17.257813 l 0.605469,0.416016 c -6.876041,1.924453 -11.306854,4.900446 -11.310547,8.25 -2e-6,0.0015 0,0.0025 0,0.0039 2.1e-5,1.860929 1.417125,3.666364 3.990234,5.25 l 81.158205,53.171872 c 1.42747,1.00361 3.2684,1.9217 5.48633,2.70898 5.36111,1.903 12.76558,3.07812 20.93945,3.07813 h 0.004 c 8.17567,-2.9e-4 15.58047,-1.17609 20.9414,-3.08008 5.35898,-1.90329 8.66992,-4.53197 8.66992,-7.43359 0,-1.92325 -1.47787,-3.72053 -4.01757,-5.27149 l -18.39844,-12.05273 c -1.37407,-4.596465 -4.9241,-8.417177 -9.08008,-10.843748 L 63.986328,41.027344 c -2.956412,-1.76558 -6.411502,-2.681775 -9.841797,-2.677735 z"
       transform="translate(0,268.42498)"
       id="path3576"
       inkscape:connector-curvature="0"
       clip-path="url(#clipPath5092)"
       inkscape:label="shadow" />
  </g>
  <g
     inkscape:groupmode="layer"
     id="layer2"
     inkscape:label="Foreground"
     style="display:none">
    <g
       inkscape:label="ufo shade"
       id="g5104"
       style="fill:#37474f"
       transform="translate(0.100431,0.100001)">
      <path
         style="fill:#37474f;fill-opacity:1;stroke:none;stroke-width:1.46425128"
         d="M 83.615431,63.735645 A 29.615431,10.514354 0 0 1 54,74.249999 29.615431,10.514354 0 0 1 24.384569,63.735645 29.615431,10.514354 0 0 1 54,53.221292 29.615431,10.514354 0 0 1 83.615431,63.735645 Z"
         id="path5100"
         inkscape:connector-curvature="0"
         inkscape:label="ufo base" />
      <path
         style="fill:#37474f;fill-opacity:1;stroke:none;stroke-width:1.61414623"
         d="m 72.370813,55.408791 c -12.638167,3.686162 -24.410205,3.718805 -36.741626,0 -1e-6,-9.47654 8.224893,-17.158793 18.370813,-17.158793 10.14592,0 18.370814,7.682253 18.370813,17.158793 z"
         id="path5102"
         inkscape:connector-curvature="0"
         sodipodi:nodetypes="ccsc"
         inkscape:label="ufo top" />
    </g>
    <g
       inkscape:label="ufo tint"
       id="g5110"
       style="display:inline"
       transform="translate(-0.099569,-0.099999)">
      <path
         style="fill:#90a4ae;fill-opacity:1;stroke:none;stroke-width:1.46425128"
         d="M 83.615431,63.735645 A 29.615431,10.514354 0 0 1 54,74.249999 29.615431,10.514354 0 0 1 24.384569,63.735645 29.615431,10.514354 0 0 1 54,53.221292 29.615431,10.514354 0 0 1 83.615431,63.735645 Z"
         id="path5106"
         inkscape:connector-curvature="0"
         inkscape:label="ufo base" />
      <path
         style="fill:#e1f5fe;fill-opacity:1;stroke:none;stroke-width:1.61414623"
         d="m 72.370813,55.408791 c -12.638167,3.686162 -24.410205,3.718805 -36.741626,0 -1e-6,-9.47654 8.224893,-17.158793 18.370813,-17.158793 10.14592,0 18.370814,7.682253 18.370813,17.158793 z"
         id="path5108"
         inkscape:connector-curvature="0"
         sodipodi:nodetypes="ccsc"
         inkscape:label="ufo top" />
    </g>
    <g
       id="g5098"
       inkscape:label="ufo">
      <path
         inkscape:label="ufo base"
         inkscape:connector-curvature="0"
         id="path4543"
         d="M 83.615431,63.735645 A 29.615431,10.514354 0 0 1 54,74.249999 29.615431,10.514354 0 0 1 24.384569,63.735645 29.615431,10.514354 0 0 1 54,53.221292 29.615431,10.514354 0 0 1 83.615431,63.735645 Z"
         style="fill:#607d8b;fill-opacity:1;stroke:none;stroke-width:1.46425128" />
      <path
         inkscape:label="ufo top"
         sodipodi:nodetypes="ccsc"
         inkscape:connector-curvature="0"
         id="path4547"
         d="m 72.370813,55.408791 c -12.638167,3.686162 -24.410205,3.718805 -36.741626,0 -1e-6,-9.47654 8.224893,-17.158793 18.370813,-17.158793 10.14592,0 18.370814,7.682253 18.370813,17.158793 z"
         style="fill:#b3e5fc;fill-opacity:1;stroke:none;stroke-width:1.61414623" />
    </g>
    <g
       id="g904">
      <circle
         transform="scale(-1,1)"
         r="2.5"
         cy="63.735645"
         cx="-75.5"
         id="circle894"
         style="fill:#fdd835;fill-opacity:0.99583333;stroke:none"
         inkscape:label="circle4" />
      <circle
         style="fill:#fdd835;fill-opacity:0.99583333;stroke:none"
         id="circle890"
         cx="-64.5"
         cy="65.625"
         r="2.5"
         transform="scale(-1,1)"
         inkscape:label="circle3" />
      <g
         aria-label="H"
         style="font-style:normal;font-weight:normal;font-size:40px;line-height:1.25;font-family:sans-serif;letter-spacing:0px;word-spacing:0px;fill:#fdd835;fill-opacity:1;stroke:none"
         id="text5698"
         transform="translate(0,1.0247105)"
         inkscape:label="h">
        <path
           style="font-style:normal;font-variant:normal;font-weight:normal;font-stretch:normal;font-size:10.66666698px;font-family:'Fredoka One';-inkscape-font-specification:'Fredoka One, Normal';font-variant-ligatures:normal;font-variant-caps:normal;font-variant-numeric:normal;font-feature-settings:normal;text-align:start;writing-mode:lr-tb;text-anchor:start;fill:#fdd835"
           d="m 51.648438,60.107422 c -0.27631,0 -0.526882,0.02308 -0.777344,0.109375 -0.249675,0.08602 -0.523216,0.264472 -0.673828,0.552734 -4.75e-4,9.09e-4 -0.0015,10e-4 -0.002,0.002 -0.07986,0.15083 -0.144467,0.30818 -0.175781,0.496094 -0.0033,0.01747 -0.0059,0.03506 -0.0078,0.05273 C 50.000203,61.446959 50,61.573019 50,61.744141 v 5.919921 c 0,0.281791 0.009,0.51247 0.09961,0.775391 0.105514,0.318889 0.376037,0.585652 0.65625,0.712891 0.28181,0.127963 0.569463,0.162109 0.88086,0.162109 0.27731,0 0.528755,-0.02413 0.779297,-0.111328 0.249752,-0.08693 0.521715,-0.265326 0.671875,-0.552734 0.08112,-0.152868 0.146106,-0.318193 0.167968,-0.521485 0.02137,-0.143748 0.0293,-0.282104 0.0293,-0.453125 V 66.9375 c -0.05284,-0.776704 -0.01701,-0.738281 0.714844,-0.738281 0.773762,-0.05779 0.714844,0.0083 0.714844,0.732421 v 0.732422 c 10e-7,0.281789 0.009,0.512474 0.09961,0.775391 0.105514,0.318887 0.376037,0.585652 0.65625,0.712891 0.28181,0.127963 0.569462,0.162109 0.880859,0.162109 0.277311,0 0.528756,-0.02413 0.779297,-0.111328 0.249753,-0.08693 0.521715,-0.265326 0.671875,-0.552734 0.08112,-0.152863 0.146106,-0.318188 0.167969,-0.521485 C 57.992078,67.985154 58,67.846799 58,67.675781 v -5.919922 c 0,-0.281097 -0.0072,-0.504283 -0.08008,-0.751953 -0.0058,-0.01849 -0.01227,-0.03674 -0.01953,-0.05469 -0.06981,-0.1815 -0.19004,-0.372846 -0.371094,-0.513672 -0.165611,-0.128814 -0.333046,-0.196074 -0.509766,-0.248047 -0.22779,-0.06699 -0.444357,-0.08008 -0.689453,-0.08008 -0.255514,0 -0.491663,0.02276 -0.722656,0.0957 -0.264741,0.0836 -0.546719,0.285587 -0.69336,0.560547 -0.08166,0.153113 -0.147858,0.312902 -0.179687,0.503906 -0.0033,0.01747 -0.0059,0.03506 -0.0078,0.05273 -0.01152,0.126641 -0.01172,0.252704 -0.01172,0.423829 v 0.74414 c 0.05231,0.779716 0.02054,0.744141 -0.714844,0.744141 -0.776831,0.05874 -0.714844,-0.01205 -0.714844,-0.738282 v -0.738281 c 0,-0.281099 -0.0072,-0.504286 -0.08008,-0.751953 -0.0036,-0.01182 -0.0075,-0.02355 -0.01172,-0.03516 -0.111208,-0.316479 -0.384826,-0.5777 -0.666022,-0.703109 -0.281196,-0.125409 -0.568425,-0.158203 -0.878906,-0.158203 z"
           id="path877"
           inkscape:connector-curvature="0"
           sodipodi:nodetypes="scccccssccscccsccccccscccssccscsccccscccsccss" />
      </g>
      <circle
         r="2.5"
         cy="65.625"
         cx="-43.5"
         id="path885"
         style="fill:#fdd835;fill-opacity:0.99583333;stroke:none"
         transform="scale(-1,1)"
         inkscape:label="circle2" />
      <circle
         transform="scale(-1,1)"
         style="fill:#fdd835;fill-opacity:0.99583333;stroke:none"
         id="circle892"
         cx="-32.5"
         cy="63.735645"
         r="2.5"
         inkscape:label="circle1" />
    </g>
  </g>
</svg>
