<?xml version="1.0" encoding="UTF-8" standalone="no"?>
<svg
   xmlns:dc="http://purl.org/dc/elements/1.1/"
   xmlns:cc="http://creativecommons.org/ns#"
   xmlns:rdf="http://www.w3.org/1999/02/22-rdf-syntax-ns#"
   xmlns:svg="http://www.w3.org/2000/svg"
   xmlns="http://www.w3.org/2000/svg"
   xmlns:sodipodi="http://sodipodi.sourceforge.net/DTD/sodipodi-0.dtd"
   xmlns:inkscape="http://www.inkscape.org/namespaces/inkscape"
   inkscape:version="1.0 (4035a4fb49, 2020-05-01)"
   sodipodi:docname="logo.svg"
   id="svg849"
   version="1.1"
   viewBox="0 0 108 108"
   height="108"
   width="108">
  <defs
     id="defs843">
    <filter
       id="filter1659"
       inkscape:label="Drop Shadow"
       style="color-interpolation-filters:sRGB;">
      <feFlood
         id="feFlood1649"
         result="flood"
         flood-color="rgb(0,0,0)"
         flood-opacity="0.498039" />
      <feComposite
         id="feComposite1651"
         result="composite1"
         operator="in"
         in2="SourceGraphic"
         in="flood" />
      <feGaussianBlur
         id="feGaussianBlur1653"
         result="blur"
         stdDeviation="0.2"
         in="composite1" />
      <feOffset
         id="feOffset1655"
         result="offset"
         dy="0"
         dx="0" />
      <feComposite
         id="feComposite1657"
         result="composite2"
         operator="over"
         in2="offset"
         in="SourceGraphic" />
    </filter>
  </defs>
  <sodipodi:namedview
     inkscape:document-rotation="0"
     inkscape:window-maximized="1"
     inkscape:window-y="212"
     inkscape:window-x="1072"
     inkscape:window-height="1377"
     inkscape:window-width="2560"
     inkscape:showpageshadow="false"
     inkscape:pagecheckerboard="true"
     units="px"
     showgrid="false"
     inkscape:current-layer="layer1"
     inkscape:document-units="px"
     inkscape:cy="57.506067"
     inkscape:cx="47.438611"
     inkscape:zoom="11.313709"
     inkscape:pageshadow="2"
     inkscape:pageopacity="0.0"
     borderopacity="1.0"
     bordercolor="#666666"
     pagecolor="#ffffff"
     id="base" />
  <metadata
     id="metadata846">
    <rdf:RDF>
      <cc:Work
         rdf:about="">
        <dc:format>image/svg+xml</dc:format>
        <dc:type
           rdf:resource="http://purl.org/dc/dcmitype/StillImage" />
        <dc:title></dc:title>
      </cc:Work>
    </rdf:RDF>
  </metadata>
  <g
     transform="translate(0,-1014.5196)"
     id="layer1"
     inkscape:groupmode="layer"
     inkscape:label="Layer 1">
    <rect
       ry="5"
       rx="5"
       y="1035.9814"
       x="23.461828"
       height="61.076347"
       width="61.076347"
       id="rect839"
       style="fill:#03a9f4;fill-opacity:1;stroke:none;stroke-width:10;stroke-linecap:round" />
    <path
       sodipodi:nodetypes="cccccccsscccccssccccccccssccccccccccccccccccccccccsccccccccccccccccccccccsccc"
       inkscape:connector-curvature="0"
       id="path1437"
       transform="translate(0,1014.5196)"
       d="m 54,30 c -0.575923,0.01173 -1.149058,0.220567 -1.583984,0.632812 L 32.683594,49.314453 c -0.873765,0.8274 -0.915449,2.215356 -0.09375,3.097656 l 0.49414,0.53125 c 0.410348,0.44115 0.94713,0.688185 1.48305,0.730641 h 2.952497 v 18.109203 c 0,1.2251 0.961195,2.216797 2.146485,2.216797 H 42 47.357422 54 60.642578 66 68.333984 c 1.18529,0 2.146485,-0.991697 2.146485,-2.216797 V 53.674 l 2.952497,-1.41e-4 c 0.53592,-0.04246 1.072702,-0.28935 1.48305,-0.7305 l 0.49414,-0.53125 c 0.821699,-0.8823 0.780015,-2.270256 -0.09375,-3.097656 L 55.583984,30.632812 C 55.149058,30.220613 54.575923,30.012 54,30 Z m 0,12.933594 c 0.275724,0.02182 1.134546,1.488213 2.107422,3.371094 0.324292,0.627626 0.662028,1.302281 0.99414,1.984374 1.32845,2.728375 2.579869,5.587126 2.640626,6.140626 0.106624,0.971337 -1.197625,6.601201 -1.898438,8.208984 -0.05006,0.114841 -0.09746,0.208665 -0.140625,0.279297 -0.04316,0.07063 -0.08239,0.118578 -0.117187,0.138672 -0.06873,0.0398 -0.223535,0.0753 -0.44336,0.105468 -0.219825,0.03017 -0.504366,0.05389 -0.832031,0.07422 -0.65533,0.04065 -1.483389,0.0625 -2.310547,0.0625 -1.654316,-0.003 -3.311015,-0.08344 -3.585938,-0.242187 -0.0348,-0.02009 -0.07402,-0.06609 -0.117187,-0.136719 -0.647448,-1.059478 -2.153303,-7.449517 -2.039063,-8.490234 0.01519,-0.138372 0.105303,-0.420054 0.251954,-0.808594 C 49.536321,50.901312 53.356644,42.984535 54,42.933594 Z m 0,4.158203 c -1.344284,0.0045 -2.432483,1.096117 -2.431641,2.441406 2.35e-4,1.344528 1.088117,2.43494 2.431641,2.439453 1.343524,-0.0046 2.431406,-1.094953 2.431641,-2.439453 C 56.432483,48.187903 55.344284,47.091797 54,47.091797 Z m 0,0.611328 c 1.007112,0.0042 1.822358,0.821978 1.822266,1.830078 -2.46e-4,0.25185 -0.05227,0.492331 -0.144532,0.710938 -0.04613,0.109303 -0.102481,0.213269 -0.167968,0.310547 -0.06549,0.09728 -0.138291,0.186756 -0.220704,0.269531 -0.329649,0.3311 -0.785886,0.537109 -1.289062,0.537109 -1.006353,-0.0042 -1.821283,-0.82077 -1.822266,-1.828125 -1.1e-5,-0.126014 0.01286,-0.248338 0.03711,-0.367187 0.16975,-0.831944 0.903933,-1.45923 1.785156,-1.462891 z m -6.460938,6.726563 c 0.04258,2.575597 1.712678,6.971553 2.15625,8.626953 -0.0968,0.3613 -0.912007,0.599284 -1.02539,1.521484 -0.113385,0.9223 1.652173,3.140725 1.277344,3.515625 -0.374829,0.3748 -5.322662,-2.996653 -5.857422,-5.751953 -0.534761,-2.7554 2.843437,-7.97511 3.449218,-7.912109 z m 12.921876,0 c 0.605781,-0.063 3.983979,5.156709 3.449218,7.912109 -0.53476,2.7553 -5.482593,6.126753 -5.857422,5.751953 -0.374829,-0.3749 1.390729,-2.593325 1.277344,-3.515625 -0.02835,-0.23055 -0.10143,-0.41853 -0.195312,-0.576172 -0.09388,-0.157642 -0.209182,-0.284562 -0.324219,-0.394531 -0.230075,-0.219938 -0.457459,-0.370131 -0.505859,-0.550781 0.443572,-1.6554 2.113669,-6.051354 2.15625,-8.626953 z m -9.607422,9.158203 c 0.656425,0.01835 1.907527,0.184935 3.146484,0.189453 1.238957,-0.0045 2.490059,-0.171453 3.146484,-0.189453 0.221784,-0.01 0.376073,0.0099 0.439454,0.04492 0.507056,0.315801 0.516088,0.39376 0.402343,0.81836 -0.113287,0.4227 -3.508544,5.746062 -3.988281,5.789062 -0.479737,-0.04351 -3.874994,-5.366296 -3.988281,-5.789062 -0.05687,-0.2123 -0.08267,-0.337179 -0.03125,-0.449219 0.02571,-0.05602 0.07025,-0.109616 0.140625,-0.167969 0.07037,-0.05835 0.166204,-0.122221 0.292968,-0.201172 0.06338,-0.035 0.21767,-0.05492 0.439454,-0.04492 z"
       style="fill:#ffffff;stroke-width:0.14577;filter:url(#filter1659)" />
  </g>
</svg>
