<?xml version="1.0" encoding="UTF-8" standalone="no"?>
<!-- Created with Inkscape (http://www.inkscape.org/) -->

<svg
   xmlns:dc="http://purl.org/dc/elements/1.1/"
   xmlns:cc="http://creativecommons.org/ns#"
   xmlns:rdf="http://www.w3.org/1999/02/22-rdf-syntax-ns#"
   xmlns:svg="http://www.w3.org/2000/svg"
   xmlns="http://www.w3.org/2000/svg"
   xmlns:sodipodi="http://sodipodi.sourceforge.net/DTD/sodipodi-0.dtd"
   xmlns:inkscape="http://www.inkscape.org/namespaces/inkscape"
   width="80.257004"
   height="80.257004"
   viewBox="0 0 80.257004 80.257004"
   version="1.1"
   id="svg849"
   sodipodi:docname="logo.svg"
   inkscape:version="0.92.4 (5da689c313, 2019-01-14)">
  <defs
     id="defs843">
    <filter
       style="color-interpolation-filters:sRGB"
       inkscape:label="Drop Shadow"
       id="filter1659">
      <feFlood
         flood-opacity="0.498039"
         flood-color="rgb(0,0,0)"
         result="flood"
         id="feFlood1649" />
      <feComposite
         in="flood"
         in2="SourceGraphic"
         operator="in"
         result="composite1"
         id="feComposite1651" />
      <feGaussianBlur
         in="composite1"
         stdDeviation="0.2"
         result="blur"
         id="feGaussianBlur1653" />
      <feOffset
         dx="0"
         dy="0"
         result="offset"
         id="feOffset1655" />
      <feComposite
         in="SourceGraphic"
         in2="offset"
         operator="over"
         result="composite2"
         id="feComposite1657" />
    </filter>
  </defs>
  <sodipodi:namedview
     id="base"
     pagecolor="#ffffff"
     bordercolor="#666666"
     borderopacity="1.0"
     inkscape:pageopacity="0.0"
     inkscape:pageshadow="2"
     inkscape:zoom="11.313709"
     inkscape:cx="42.703143"
     inkscape:cy="43.363932"
     inkscape:document-units="px"
     inkscape:current-layer="layer1"
     showgrid="false"
     units="px"
     inkscape:pagecheckerboard="true"
     inkscape:showpageshadow="false"
     inkscape:window-width="2560"
     inkscape:window-height="1377"
     inkscape:window-x="-8"
     inkscape:window-y="-8"
     inkscape:window-maximized="1" />
  <metadata
     id="metadata846">
    <rdf:RDF>
      <cc:Work
         rdf:about="">
        <dc:format>image/svg+xml</dc:format>
        <dc:type
           rdf:resource="http://purl.org/dc/dcmitype/StillImage" />
        <dc:title></dc:title>
      </cc:Work>
    </rdf:RDF>
  </metadata>
  <g
     inkscape:label="Layer 1"
     inkscape:groupmode="layer"
     id="layer1"
     transform="translate(0,-1042.2626)">
    <rect
       style="opacity:1;fill:#03a9f4;fill-opacity:1;fill-rule:nonzero;stroke:none;stroke-width:2.50000596;stroke-linecap:round;stroke-linejoin:round;stroke-miterlimit:4;stroke-dasharray:none;stroke-opacity:0.66666667;paint-order:normal"
       id="rect822"
       width="80.257004"
       height="80.256615"
       x="0"
       y="1042.2629"
       rx="3.8007171"
       ry="3.8006988" />
    <path
       style="fill:#ffffff;stroke-width:0.14577004;filter:url(#filter1659)"
       d="m 39.769477,1060.6947 c -0.575923,0.012 -1.149058,0.2205 -1.583984,0.6328 l -19.732422,18.6816 c -0.873765,0.8274 -0.915449,2.2154 -0.09375,3.0977 l 0.49414,0.5312 c 0.410348,0.4412 0.94713,0.6882 1.48305,0.7307 h 2.952497 v 18.1092 c 0,1.2251 0.961195,2.2168 2.146485,2.2168 h 2.333984 5.357422 6.642578 6.642578 5.357422 2.333984 c 1.18529,0 2.146485,-0.9917 2.146485,-2.2168 v -18.1092 l 2.952497,-2e-4 c 0.53592,-0.042 1.072702,-0.2893 1.48305,-0.7305 l 0.49414,-0.5312 c 0.821699,-0.8823 0.780015,-2.2703 -0.09375,-3.0977 l -19.732422,-18.6816 c -0.434926,-0.4122 -1.008061,-0.6208 -1.583984,-0.6328 z m 0,12.9336 c 0.275724,0.022 1.134546,1.4882 2.107422,3.3711 0.324292,0.6276 0.662028,1.3022 0.99414,1.9843 1.32845,2.7284 2.579869,5.5872 2.640626,6.1407 0.106624,0.9713 -1.197625,6.6012 -1.898438,8.2089 -0.05006,0.1149 -0.09746,0.2087 -0.140625,0.2793 -0.04316,0.071 -0.08239,0.1186 -0.117187,0.1387 -0.06873,0.04 -0.223535,0.075 -0.44336,0.1055 -0.219825,0.03 -0.504366,0.054 -0.832031,0.074 -0.65533,0.041 -1.483389,0.062 -2.310547,0.062 -1.654316,-0 -3.311015,-0.083 -3.585938,-0.2422 -0.0348,-0.02 -0.07402,-0.066 -0.117187,-0.1367 -0.647448,-1.0595 -2.153303,-7.4495 -2.039063,-8.4902 0.01519,-0.1384 0.105303,-0.4201 0.251954,-0.8086 1.026555,-2.7198 4.846878,-10.6366 5.490234,-10.6875 z m 0,4.1582 c -1.344284,0 -2.432483,1.0961 -2.431641,2.4414 2.35e-4,1.3445 1.088117,2.4349 2.431641,2.4394 1.343524,-0 2.431406,-1.0949 2.431641,-2.4394 8.42e-4,-1.3453 -1.087357,-2.4414 -2.431641,-2.4414 z m 0,0.6113 c 1.007112,0 1.822358,0.822 1.822266,1.8301 -2.46e-4,0.2518 -0.05227,0.4923 -0.144532,0.7109 -0.04613,0.1093 -0.102481,0.2133 -0.167968,0.3106 -0.06549,0.097 -0.138291,0.1867 -0.220704,0.2695 -0.329649,0.3311 -0.785886,0.5371 -1.289062,0.5371 -1.006353,-0 -1.821283,-0.8208 -1.822266,-1.8281 -1.1e-5,-0.126 0.01286,-0.2484 0.03711,-0.3672 0.16975,-0.832 0.903933,-1.4592 1.785156,-1.4629 z m -6.460938,6.7266 c 0.04258,2.5756 1.712678,6.9715 2.15625,8.6269 -0.0968,0.3613 -0.912007,0.5993 -1.02539,1.5215 -0.113385,0.9223 1.652173,3.1407 1.277344,3.5156 -0.374829,0.3748 -5.322662,-2.9966 -5.857422,-5.7519 -0.534761,-2.7554 2.843437,-7.9751 3.449218,-7.9121 z m 12.921876,0 c 0.605781,-0.063 3.983979,5.1567 3.449218,7.9121 -0.53476,2.7553 -5.482593,6.1267 -5.857422,5.7519 -0.374829,-0.3749 1.390729,-2.5933 1.277344,-3.5156 -0.02835,-0.2306 -0.10143,-0.4185 -0.195312,-0.5762 -0.09388,-0.1576 -0.209182,-0.2845 -0.324219,-0.3945 -0.230075,-0.2199 -0.457459,-0.3701 -0.505859,-0.5508 0.443572,-1.6554 2.113669,-6.0513 2.15625,-8.6269 z m -9.607422,9.1582 c 0.656425,0.018 1.907527,0.1849 3.146484,0.1894 1.238957,-0 2.490059,-0.1714 3.146484,-0.1894 0.221784,-0.01 0.376073,0.01 0.439454,0.045 0.507056,0.3158 0.516088,0.3937 0.402343,0.8183 -0.113287,0.4227 -3.508544,5.7461 -3.988281,5.7891 -0.479737,-0.043 -3.874994,-5.3663 -3.988281,-5.7891 -0.05687,-0.2123 -0.08267,-0.3371 -0.03125,-0.4492 0.02571,-0.056 0.07025,-0.1096 0.140625,-0.168 0.07037,-0.058 0.166204,-0.1222 0.292968,-0.2011 0.06338,-0.035 0.21767,-0.055 0.439454,-0.045 z"
       id="path1437"
       inkscape:connector-curvature="0"
       sodipodi:nodetypes="cccccccsscccccssccccccccssccccccccccccccccccccccccsccccccccccccccccccccccsccc" />
  </g>
</svg>
